<svg width="43" height="48" viewBox="0 0 43 48" fill="none" xmlns="http://www.w3.org/2000/svg">
    <path d="M12.1257 33.8965V11.6068C12.1257 9.58712 12.1257 8.6691 11.3179 7.89796C10.6202 7.2737 9.59198 7.2737 8.67395 7.2737C8.45362 7.2737 0.558594 7.38386 0.558594 7.38386V47.2262L5.22217 43.6275V37.5319C6.36052 37.5319 8.12313 37.5686 8.78411 37.5686C10.0693 37.5686 11.6484 37.1646 12.089 35.3653C12.1624 35.145 12.1257 34.8879 12.1257 34.6309C12.1257 34.3738 12.1257 34.1168 12.1257 33.8965ZM7.75592 33.162C7.75592 33.4191 7.60904 33.6394 7.35199 33.8597C7.05822 34.0801 6.76445 34.1902 6.39724 34.1902C6.06675 34.1902 5.25889 34.1902 5.25889 34.1902C5.25889 34.1902 5.22217 33.4558 5.22217 33.1988V11.974C5.22217 11.6435 5.22217 10.9091 5.22217 10.9091C5.22217 10.9091 6.06675 10.9091 6.39724 10.9091C6.80117 10.9091 7.09494 11.0192 7.38871 11.2029C7.64576 11.3865 7.79264 11.6435 7.79264 11.9373V33.162H7.75592Z" fill="#19357F"/>
    <path d="M42.6776 10.4684V7.31042H39.336V0.00292969L34.7826 3.45471V7.31042H32.3223V10.4684H34.7826V32.9785C34.7826 34.4106 35.0763 35.4388 35.6639 36.0263C36.2514 36.6138 36.8757 37.0178 37.5734 37.2014C37.9773 37.3115 38.3445 37.385 38.7117 37.385C39.0789 37.385 39.4094 37.4217 39.6665 37.4217C39.7032 37.4217 39.7032 37.4217 39.7032 37.4584H42.6776V34.1535H41.0252C40.9517 34.1535 40.8416 34.1535 40.7314 34.1168C40.6212 34.1168 40.5111 34.0801 40.4376 34.0434C40.1806 33.9699 39.9235 33.7863 39.6665 33.4925C39.4462 33.1988 39.336 32.7948 39.336 32.2073V10.4684H42.6776Z" fill="#19357F"/>
    <path d="M28.7236 9.62385C28.5767 9.03632 28.2095 8.52222 27.6587 8.00813C27.1079 7.49403 26.1531 7.23698 24.7945 7.23698H21.7466C21.563 7.23698 21.3794 7.23698 21.1591 7.23698C20.9755 7.23698 20.7551 7.23698 20.5348 7.27371C19.7637 7.34715 19.066 7.64092 18.4417 8.15501C17.8175 8.66911 17.5237 9.6973 17.5237 11.313V16.5641C17.5237 16.6376 17.5237 16.6743 17.5237 16.711C17.5237 16.7477 17.5237 16.7845 17.5237 16.8212C17.5237 17.2618 17.5237 17.629 17.5604 17.9595C17.5604 18.29 17.6338 18.6205 17.7807 18.9143C17.8542 19.1346 18.0011 19.3917 18.2214 19.6487C18.405 19.9058 18.662 20.1995 18.9925 20.4933L23.1053 24.5326C23.2522 24.6795 23.3991 24.8264 23.5092 24.9365C23.6194 25.0834 23.7295 25.1936 23.803 25.3038C23.9866 25.5975 24.1335 25.8913 24.2069 26.1851C24.2804 26.4788 24.3538 26.8828 24.3538 27.3234V33.1253C24.3538 33.1621 24.3538 33.1988 24.3538 33.2355C24.3538 33.2722 24.3538 34.1535 24.3538 34.1535H23.9499C23.9499 34.1535 23.5459 34.1902 23.2154 34.1902C22.9217 34.1902 22.6646 34.0801 22.4443 33.8965C22.2607 33.7129 22.1505 33.4558 22.1505 33.1253V27.0664L17.5971 30.3345V33.0152C17.5971 33.0519 17.5971 33.0886 17.5971 33.1253C17.5971 33.1621 17.5971 33.1988 17.5971 33.2355C17.5971 33.4558 17.5971 33.7496 17.6338 34.0434C17.6338 34.3739 17.6706 34.6676 17.744 34.9981C17.9276 35.5857 18.2948 36.1365 18.8456 36.6506C19.3965 37.1279 20.3512 37.385 21.6732 37.4217L24.8312 37.385C26.3 37.385 27.2915 37.0912 27.8423 36.467C28.3931 35.8794 28.7236 35.1817 28.8338 34.4473C28.8705 34.1903 28.8705 33.9332 28.9072 33.7129C28.9072 33.4925 28.9439 33.2722 28.9439 33.0152V27.0664C28.9439 26.3687 28.9439 25.8178 28.9072 25.3772C28.8705 24.9365 28.7603 24.5326 28.54 24.1287C28.3931 23.8349 28.1728 23.5411 27.9157 23.2107C27.6587 22.8802 27.3282 22.5129 26.8876 22.109L23.6561 19.0612C23.2522 18.6572 22.885 18.2533 22.5912 17.7759C22.2607 17.3353 22.1138 16.8212 22.1138 16.1969V11.4232C22.1138 11.0927 22.224 10.8724 22.4443 10.6888C22.6646 10.5052 22.885 10.4317 23.142 10.395C23.1787 10.395 23.1787 10.395 23.2154 10.395C23.2154 10.395 23.2522 10.395 23.2889 10.395C23.5459 10.395 23.803 10.5052 24.0233 10.6888C24.2436 10.8724 24.3538 11.1294 24.3538 11.4599V17.0048L28.9072 13.2225V11.3865C28.9072 11.3497 28.9072 11.313 28.9072 11.313C28.9072 11.0927 28.9072 10.8356 28.8705 10.5419C28.8338 10.2114 28.797 9.91762 28.7236 9.62385Z" fill="#19357F"/>
</svg>
