<svg width="8" height="8" viewBox="0 0 8 8" fill="none" xmlns="http://www.w3.org/2000/svg">
    <path fill-rule="evenodd" clip-rule="evenodd" d="M7.38462 4C7.38462 5.86927 5.86927 7.38462 4 7.38462C2.13073 7.38462 0.615385 5.86927 0.615385 4C0.615385 2.13073 2.13073 0.615385 4 0.615385C5.86927 0.615385 7.38462 2.13073 7.38462 4ZM8 4C8 6.20914 6.20914 8 4 8C1.79086 8 0 6.20914 0 4C0 1.79086 1.79086 0 4 0C6.20914 0 8 1.79086 8 4ZM3.62235 2.47272C3.73099 2.57126 3.85692 2.62052 4.00013 2.62052C4.14828 2.62052 4.2742 2.57126 4.37791 2.47272C4.48161 2.37419 4.53346 2.25454 4.53346 2.11378C4.53346 1.97302 4.48161 1.85337 4.37791 1.75483C4.2742 1.65161 4.14828 1.6 4.00013 1.6C3.85692 1.6 3.73099 1.65161 3.62235 1.75483C3.51865 1.85337 3.4668 1.97302 3.4668 2.11378C3.4668 2.25454 3.51865 2.37419 3.62235 2.47272ZM3.55569 3.00058V6.4H4.44457V3.00058H3.55569Z" fill="#FF8B25"/>
</svg>
