<svg width="99" height="51" viewBox="0 0 99 51" fill="none" xmlns="http://www.w3.org/2000/svg">
    <path d="M49.5 0.754456C22.51 0.754456 0.624252 22.8973 0.624252 50.2545H98.3757C98.3757 22.8973 76.49 0.754456 49.5 0.754456Z" fill="white"/>
    <path d="M99 50.8787H0V50.2544C0 22.6035 22.2162 0.130188 49.5 0.130188C76.7838 0.130188 99 22.6035 99 50.2544V50.8787ZM1.24852 49.6302H97.7515C97.421 22.9707 75.9025 1.3787 49.5 1.3787C23.0976 1.3787 1.57901 22.9707 1.24852 49.6302Z" fill="#19357F"/>
    <path d="M20.27 45.3338L21.2982 45.1869C21.3349 45.3705 21.4451 45.5174 21.5553 45.6276C21.7022 45.7377 21.8858 45.7744 22.1061 45.7744C22.3631 45.7744 22.5467 45.7377 22.6936 45.6276C22.7671 45.5541 22.8405 45.4807 22.8405 45.3705C22.8405 45.2971 22.8038 45.2236 22.7671 45.1869C22.7303 45.1502 22.6202 45.0767 22.4366 45.04C21.6287 44.8564 21.1146 44.7095 20.8943 44.5626C20.6005 44.3423 20.4536 44.0853 20.4536 43.7181C20.4536 43.3876 20.6005 43.0938 20.8576 42.8735C21.1146 42.6531 21.5186 42.543 22.0694 42.543C22.5835 42.543 22.9874 42.6164 23.2444 42.8C23.5015 42.9836 23.6851 43.204 23.7585 43.5712L22.8038 43.7548C22.7671 43.6079 22.6936 43.4977 22.5835 43.4243C22.4733 43.3508 22.2897 43.3141 22.1061 43.3141C21.849 43.3141 21.6654 43.3508 21.5186 43.4243C21.4451 43.461 21.4084 43.5345 21.4084 43.6446C21.4084 43.7181 21.4451 43.7915 21.5186 43.8282C21.592 43.9017 21.9225 43.9751 22.4733 44.122C23.0241 44.2322 23.3913 44.379 23.6117 44.5626C23.832 44.7462 23.9421 45.0033 23.9421 45.2971C23.9421 45.6643 23.7953 45.958 23.5015 46.2151C23.2077 46.4721 22.7671 46.5823 22.2163 46.5823C21.7022 46.5823 21.2982 46.4721 20.9677 46.2518C20.5638 45.958 20.3435 45.6643 20.27 45.3338Z" fill="#19357F"/>
    <path d="M27.9448 45.1869L28.9362 45.3705C28.7893 45.7377 28.6057 46.0315 28.312 46.2151C28.0182 46.3987 27.6877 46.5089 27.2838 46.5089C26.6228 46.5089 26.1454 46.2885 25.8149 45.8479C25.5579 45.5174 25.4477 45.0767 25.4477 44.5259C25.4477 43.9017 25.5946 43.3876 25.9251 43.0571C26.2556 42.7266 26.6595 42.5063 27.1736 42.5063C27.7244 42.5063 28.2018 42.6899 28.5323 43.0571C28.8628 43.4243 29.0097 44.0118 29.0097 44.783H26.4759C26.4759 45.0767 26.5494 45.2971 26.733 45.4807C26.8798 45.6643 27.1002 45.7377 27.3205 45.7377C27.4674 45.7377 27.6143 45.701 27.7244 45.5908C27.7979 45.5174 27.8713 45.3705 27.9448 45.1869ZM27.9815 44.1587C27.9815 43.865 27.908 43.6446 27.7611 43.4977C27.6143 43.3509 27.4307 43.2774 27.2471 43.2774C27.0267 43.2774 26.8431 43.3509 26.6962 43.5345C26.5494 43.6813 26.4759 43.9017 26.4759 44.1954H27.9815V44.1587Z" fill="#19357F"/>
    <path d="M31.8004 46.3987H30.809V42.5797H31.727V43.1305C31.8739 42.8735 32.0208 42.6899 32.1676 42.6164C32.2778 42.543 32.4247 42.5063 32.6083 42.5063C32.8286 42.5063 33.0489 42.5797 33.2693 42.6899L32.9755 43.5712C32.7919 43.461 32.645 43.4243 32.4981 43.4243C32.3512 43.4243 32.2411 43.461 32.1309 43.5345C32.0208 43.6079 31.9473 43.7548 31.9106 43.9384C31.8371 44.1587 31.8371 44.5627 31.8371 45.2236V46.3987H31.8004Z" fill="#19357F"/>
    <path d="M35.7663 46.3987L34.224 42.5797H35.2889L36.0234 44.5259L36.2437 45.1869C36.2804 45.04 36.3171 44.9299 36.3539 44.8564C36.3906 44.7463 36.4273 44.6361 36.464 44.5259L37.1984 42.5797H38.2266L36.6843 46.3987H35.7663Z" fill="#19357F"/>
    <path d="M39.8424 42.0656V41.1476H40.8338V42.0656H39.8424ZM39.8424 46.3987V42.5797H40.8338V46.3987H39.8424Z" fill="#19357F"/>
    <path d="M46.2318 43.7181L45.2404 43.9017C45.2036 43.7181 45.1302 43.5712 45.02 43.461C44.9099 43.3509 44.763 43.3141 44.5427 43.3141C44.2856 43.3141 44.102 43.3876 43.9551 43.5712C43.8082 43.7548 43.7348 44.0486 43.7348 44.4525C43.7348 44.8931 43.8082 45.2236 43.9551 45.4072C44.102 45.5908 44.3223 45.701 44.5794 45.701C44.763 45.701 44.9099 45.6643 45.0568 45.5541C45.2036 45.444 45.2771 45.2603 45.3138 45.0033L46.3053 45.1869C46.1951 45.6276 46.0115 45.9948 45.7177 46.2151C45.424 46.4354 45.02 46.5456 44.5427 46.5456C43.9918 46.5456 43.5512 46.362 43.2207 46.0315C42.8902 45.6643 42.7066 45.1869 42.7066 44.5626C42.7066 43.9384 42.8902 43.461 43.2207 43.0938C43.5512 42.7266 43.9918 42.5797 44.5794 42.5797C45.0568 42.5797 45.424 42.6899 45.681 42.8735C45.9381 43.0204 46.1217 43.3141 46.2318 43.7181Z" fill="#19357F"/>
    <path d="M50.2344 45.1869L51.2259 45.3705C51.079 45.7377 50.8954 46.0315 50.6016 46.2151C50.3079 46.3987 49.9774 46.5089 49.5734 46.5089C48.9125 46.5089 48.4351 46.2885 48.1046 45.8479C47.8476 45.5174 47.7374 45.0767 47.7374 44.5259C47.7374 43.9017 47.8843 43.3876 48.2148 43.0571C48.5453 42.6899 48.9492 42.5063 49.4633 42.5063C50.0141 42.5063 50.4915 42.6899 50.822 43.0571C51.1525 43.4243 51.2993 44.0118 51.2993 44.783H48.7656C48.7656 45.0767 48.839 45.2971 49.0226 45.4807C49.2062 45.6643 49.3898 45.7377 49.6102 45.7377C49.7571 45.7377 49.9039 45.701 50.0141 45.5908C50.0875 45.5174 50.1977 45.3705 50.2344 45.1869ZM50.3079 44.1587C50.3079 43.865 50.2344 43.6446 50.0875 43.4977C49.9407 43.3509 49.7571 43.2774 49.5734 43.2774C49.3531 43.2774 49.1695 43.3509 49.0226 43.5345C48.8757 43.6813 48.8023 43.9017 48.8023 44.1954H50.3079V44.1587Z" fill="#19357F"/>
    <path d="M62.2422 46.1789C62.2789 46.2524 62.1688 46.3258 62.0953 46.3258H61.1773C61.1038 46.3258 61.1038 46.3258 61.0671 46.2891C61.0671 46.2891 61.0304 44.5999 60.5897 44.2694C60.553 44.2327 60.3327 44.2694 60.3327 44.2694C60.1858 44.2694 60.0756 44.2694 60.0022 44.2694L59.7452 46.2156C59.7452 46.3258 59.6717 46.3625 59.5983 46.3625H58.7537C58.6803 46.3625 58.6803 46.3625 58.6803 46.2891L59.378 41.4419C59.378 41.3684 59.4514 41.3317 59.5248 41.295C59.7452 41.2583 60.0389 41.2583 60.296 41.2583H60.3694H60.4061C60.6265 41.2583 60.8468 41.2583 60.957 41.2583C62.0586 41.2583 62.536 41.6989 62.536 42.4701C62.536 43.2412 62.2789 43.6452 61.5078 43.9756C61.5078 43.9756 61.5445 44.0491 61.5445 44.0858C61.9851 44.5265 62.2422 46.1789 62.2422 46.1789ZM60.1858 43.535C60.296 43.535 60.4061 43.535 60.5897 43.535C61.214 43.535 61.5078 43.1311 61.5078 42.617C61.5078 42.1396 61.1773 42.0294 60.8468 42.0294C60.7366 42.0294 60.5897 42.0294 60.4061 42.0294L60.1858 43.535Z" fill="#19357F"/>
    <path d="M69.109 41.4047L68.6316 44.526C68.448 45.7378 67.7136 46.3987 66.4651 46.3987C65.1431 46.3987 64.5923 45.6643 64.7392 44.4525L65.1799 41.3312C65.2166 41.2578 65.2166 41.2578 65.29 41.2578H66.1346C66.2081 41.2578 66.2448 41.3312 66.2448 41.4047L65.7674 44.526C65.6572 45.187 65.9143 45.5174 66.4651 45.5174C67.0526 45.5174 67.4566 45.1502 67.5667 44.4893L68.0074 41.368C68.0074 41.2945 68.0441 41.2945 68.1176 41.2945H68.9621C69.0723 41.2578 69.1457 41.3312 69.109 41.4047Z" fill="#19357F"/>
    <path d="M74.3234 41.6617C74.3969 41.7352 74.3969 41.7719 74.3601 41.8453L73.9195 42.3594C73.8828 42.3962 73.8093 42.3962 73.6992 42.3594C73.4054 42.1758 73.2952 42.1391 73.0749 42.1391C72.7444 42.1391 72.4139 42.4696 72.4139 42.7634C72.4139 43.0204 72.7077 43.1673 73.0015 43.3142C73.6257 43.6447 74.1398 43.7916 74.1398 44.6361C74.1031 45.4807 73.6257 46.4355 72.1936 46.4355C71.5326 46.4355 71.1654 46.2151 70.7248 45.8479C70.688 45.7745 70.6513 45.7378 70.688 45.6643L71.0552 45.187C71.092 45.1135 71.2021 45.1135 71.2388 45.187C71.6061 45.444 71.7897 45.5542 72.1936 45.5542C72.7444 45.5542 73.0015 45.1135 73.0015 44.7463C73.0015 44.3791 72.7077 44.2689 72.4506 44.1588C71.8264 43.8283 71.2756 43.6814 71.2756 42.9103C71.2756 42.2493 71.6795 41.2211 73.0382 41.2211C73.5156 41.1844 73.9929 41.3312 74.3234 41.6617Z" fill="#19357F"/>
    <path d="M79.8316 41.6617C79.905 41.7352 79.905 41.7719 79.8683 41.8453L79.4277 42.3594C79.3909 42.3962 79.3175 42.3962 79.2073 42.3594C78.9136 42.1758 78.8034 42.1391 78.5831 42.1391C78.2526 42.1391 77.9221 42.4696 77.9221 42.7634C77.9221 43.0204 78.2159 43.1673 78.5096 43.3142C79.1339 43.6447 79.648 43.7916 79.648 44.6361C79.6113 45.4807 79.1339 46.4355 77.7018 46.4355C77.0408 46.4355 76.6736 46.2151 76.2329 45.8479C76.1962 45.7745 76.1595 45.7378 76.1962 45.6643L76.5634 45.187C76.6001 45.1135 76.7103 45.1135 76.747 45.187C77.1142 45.444 77.2978 45.5542 77.7018 45.5542C78.2526 45.5542 78.5096 45.1135 78.5096 44.7463C78.5096 44.3791 78.2159 44.2689 77.9588 44.1588C77.3346 43.8283 76.7837 43.6814 76.7837 42.9103C76.7837 42.2493 77.1877 41.2211 78.5464 41.2211C79.0237 41.1844 79.5011 41.3312 79.8316 41.6617Z" fill="#19357F"/>
    <path d="M83.5037 41.2578C83.5771 41.2578 83.6506 41.3312 83.6139 41.4047L82.7326 46.1784C82.7326 46.2519 82.6591 46.2886 82.5857 46.2886H81.7411C81.6676 46.2886 81.6309 46.2519 81.6309 46.2151L82.5489 41.3312C82.5489 41.2578 82.5857 41.2578 82.6591 41.2578H83.5037Z" fill="#19357F"/>
    <path d="M89.3424 46.3253H88.461C88.3876 46.3253 88.3509 46.2519 88.3509 46.2151L88.1673 44.8565H86.8086L86.1476 46.2151C86.1109 46.2519 86.0742 46.2886 86.0007 46.2886H85.1194C85.046 46.2886 84.9725 46.2152 85.0093 46.1417L87.5063 41.2945C87.543 41.2211 87.5797 41.2211 87.6165 41.2211H88.5345C88.6079 41.2211 88.6446 41.2945 88.6446 41.3312L89.4158 46.105C89.4525 46.2519 89.4158 46.3253 89.3424 46.3253ZM88.0938 44.0853L87.9469 42.5063L87.0656 44.0853H88.0938Z" fill="#19357F"/>
    <path d="M91.8027 45.0768H90.7377V46.1784H91.8027V45.0768Z" fill="#19357F"/>
    <path d="M24.1257 35.8965V13.6068C24.1257 11.5871 24.1257 10.6691 23.3179 9.89796C22.6202 9.2737 21.592 9.2737 20.674 9.2737C20.4536 9.2737 12.5586 9.38386 12.5586 9.38386V49.2262L17.2222 45.6275V39.5319C18.3605 39.5319 20.1231 39.5686 20.7841 39.5686C22.0694 39.5686 23.6484 39.1646 24.089 37.3653C24.1625 37.145 24.1257 36.8879 24.1257 36.6309C24.1257 36.3738 24.1257 36.1168 24.1257 35.8965ZM19.7559 35.162C19.7559 35.4191 19.6091 35.6394 19.352 35.8597C19.0582 36.0801 18.7645 36.1902 18.3973 36.1902C18.0668 36.1902 17.2589 36.1902 17.2589 36.1902C17.2589 36.1902 17.2222 35.4558 17.2222 35.1988V13.974C17.2222 13.6435 17.2222 12.9091 17.2222 12.9091C17.2222 12.9091 18.0668 12.9091 18.3973 12.9091C18.8012 12.9091 19.095 13.0192 19.3887 13.2029C19.6458 13.3865 19.7927 13.6435 19.7927 13.9373V35.162H19.7559Z" fill="#19357F"/>
    <path d="M54.6777 12.4684V9.31042H51.3361V2.00293L46.7826 5.45471V9.31042H44.3223V12.4684H46.7826V34.9785C46.7826 36.4106 47.0764 37.4388 47.6639 38.0263C48.2515 38.6138 48.8757 39.0178 49.5734 39.2014C49.9774 39.3115 50.3446 39.385 50.7118 39.385C51.079 39.385 51.4095 39.4217 51.6665 39.4217C51.7033 39.4217 51.7033 39.4217 51.7033 39.4584H54.6777V36.1535H53.0252C52.9518 36.1535 52.8416 36.1535 52.7315 36.1168C52.6213 36.1168 52.5111 36.0801 52.4377 36.0434C52.1806 35.9699 51.9236 35.7863 51.6665 35.4925C51.4462 35.1988 51.3361 34.7948 51.3361 34.2073V12.4684H54.6777Z" fill="#19357F"/>
    <path d="M40.7237 11.6239C40.5768 11.0363 40.2096 10.5222 39.6588 10.0081C39.1079 9.49403 38.1532 9.23698 36.7945 9.23698H33.7467C33.5631 9.23698 33.3795 9.23698 33.1591 9.23698C32.9755 9.23698 32.7552 9.23698 32.5349 9.27371C31.7637 9.34715 31.066 9.64092 30.4418 10.155C29.8175 10.6691 29.5237 11.6973 29.5237 13.313V18.5641C29.5237 18.6376 29.5237 18.6743 29.5237 18.711C29.5237 18.7477 29.5237 18.7845 29.5237 18.8212C29.5237 19.2618 29.5237 19.629 29.5605 19.9595C29.5605 20.29 29.6339 20.6205 29.7808 20.9143C29.8542 21.1346 30.0011 21.3917 30.2214 21.6487C30.405 21.9058 30.6621 22.1995 30.9926 22.4933L35.1053 26.5326C35.2522 26.6795 35.3991 26.8264 35.5093 26.9365C35.6194 27.0834 35.7296 27.1936 35.803 27.3038C35.9866 27.5975 36.1335 27.8913 36.207 28.1851C36.2804 28.4788 36.3539 28.8828 36.3539 29.3234V35.1253C36.3539 35.1621 36.3539 35.1988 36.3539 35.2355C36.3539 35.2722 36.3539 36.1535 36.3539 36.1535H35.9499C35.9499 36.1535 35.546 36.1902 35.2155 36.1902C34.9217 36.1902 34.6647 36.0801 34.4444 35.8965C34.2608 35.7129 34.1506 35.4558 34.1506 35.1253V29.0664L29.5972 32.3345V35.0152C29.5972 35.0519 29.5972 35.0886 29.5972 35.1253C29.5972 35.1621 29.5972 35.1988 29.5972 35.2355C29.5972 35.4558 29.5972 35.7496 29.6339 36.0434C29.6339 36.3739 29.6706 36.6676 29.7441 36.9981C29.9277 37.5857 30.2949 38.1365 30.8457 38.6506C31.3965 39.1279 32.3513 39.385 33.6732 39.4217L36.8312 39.385C38.3001 39.385 39.2915 39.0912 39.8424 38.467C40.3932 37.8794 40.7237 37.1817 40.8338 36.4473C40.8706 36.1903 40.8706 35.9332 40.9073 35.7129C40.9073 35.4925 40.944 35.2722 40.944 35.0152V29.0664C40.944 28.3687 40.944 27.8178 40.9073 27.3772C40.8706 26.9365 40.7604 26.5326 40.5401 26.1287C40.3932 25.8349 40.1728 25.5411 39.9158 25.2107C39.6588 24.8802 39.3283 24.5129 38.8876 24.109L35.6562 21.0612C35.2522 20.6572 34.885 20.2533 34.5912 19.7759C34.2608 19.3353 34.1139 18.8212 34.1139 18.1969V13.4232C34.1139 13.0927 34.224 12.8724 34.4444 12.6888C34.6647 12.5052 34.885 12.4317 35.1421 12.395C35.1788 12.395 35.1788 12.395 35.2155 12.395C35.2155 12.395 35.2522 12.395 35.2889 12.395C35.546 12.395 35.803 12.5052 36.0234 12.6888C36.2437 12.8724 36.3539 13.1294 36.3539 13.4599V19.0048L40.9073 15.2225V13.3865C40.9073 13.3497 40.9073 13.313 40.9073 13.313C40.9073 13.0927 40.9073 12.8356 40.8706 12.5419C40.8338 12.2114 40.7971 11.9176 40.7237 11.6239Z" fill="#19357F"/>
    <path d="M64.2986 39.642L64.9963 36.7044L84.8257 19.0415L67.6402 38.8342L64.2986 39.642Z" fill="#EC6E00"/>
    <path d="M66.8691 12.799H66.2448V15.5898H66.8691V12.799Z" fill="#19357F"/>
    <path d="M62.5447 13.0998L61.9253 13.1777L62.2733 15.9467L62.8927 15.8688L62.5447 13.0998Z" fill="#19357F"/>
    <path d="M58.2411 14.1685L57.6464 14.3581L58.4942 17.0169L59.0889 16.8273L58.2411 14.1685Z" fill="#19357F"/>
    <path d="M54.2069 15.8291L53.6552 16.121L54.9604 18.5878L55.5122 18.2958L54.2069 15.8291Z" fill="#19357F"/>
    <path d="M82.4324 18.6344L80.6328 20.7677L81.11 21.1702L82.9095 19.0369L82.4324 18.6344Z" fill="#19357F"/>
    <path d="M78.8599 16.187L77.3903 18.5595L77.921 18.8882L79.3906 16.5157L78.8599 16.187Z" fill="#19357F"/>
    <path d="M88.0691 25.2718L85.6791 26.713L86.0014 27.2476L88.3915 25.8064L88.0691 25.2718Z" fill="#19357F"/>
    <path d="M85.5229 21.7217L83.4106 23.5457L83.8186 24.0182L85.9309 22.1942L85.5229 21.7217Z" fill="#19357F"/>
    <path d="M90.0246 29.2654L87.4085 30.2369L87.6258 30.8221L90.2419 29.8506L90.0246 29.2654Z" fill="#19357F"/>
    <path d="M91.6122 37.789L88.8217 37.8205L88.8288 38.4447L91.6193 38.4132L91.6122 37.789Z" fill="#19357F"/>
    <path d="M91.1565 33.5123L88.3905 33.8832L88.4735 34.5019L91.2395 34.131L91.1565 33.5123Z" fill="#19357F"/>
    <path d="M74.8792 14.2639L73.9437 16.8934L74.5319 17.1026L75.4674 14.4731L74.8792 14.2639Z" fill="#19357F"/>
    <path d="M70.6402 13.216L70.2243 15.9755L70.8416 16.0685L71.2574 13.309L70.6402 13.216Z" fill="#19357F"/>
</svg>
