<svg width="76" height="40" viewBox="0 0 76 40" fill="none" xmlns="http://www.w3.org/2000/svg">
    <path d="M15.5608 35.5965L16.3502 35.4838C16.3783 35.6247 16.4629 35.7375 16.5475 35.8221C16.6602 35.9066 16.8012 35.9348 16.9703 35.9348C17.1677 35.9348 17.3086 35.9066 17.4214 35.8221C17.4778 35.7657 17.5341 35.7093 17.5341 35.6247C17.5341 35.5683 17.5059 35.512 17.4778 35.4838C17.4496 35.4556 17.365 35.3992 17.224 35.371C16.6039 35.2301 16.2092 35.1173 16.0401 35.0045C15.8145 34.8354 15.7018 34.6381 15.7018 34.3562C15.7018 34.1025 15.8145 33.877 16.0119 33.7078C16.2092 33.5387 16.5193 33.4541 16.9421 33.4541C17.3368 33.4541 17.6469 33.5105 17.8442 33.6514C18.0415 33.7924 18.1825 33.9615 18.2389 34.2434L17.5059 34.3844C17.4777 34.2716 17.4214 34.187 17.3368 34.1307C17.2522 34.0743 17.1113 34.0461 16.9703 34.0461C16.773 34.0461 16.6321 34.0743 16.5193 34.1307C16.4629 34.1588 16.4347 34.2152 16.4347 34.2998C16.4347 34.3562 16.4629 34.4126 16.5193 34.4407C16.5757 34.4971 16.8294 34.5535 17.2522 34.6663C17.6751 34.7508 17.957 34.8636 18.1261 35.0045C18.2953 35.1455 18.3798 35.3428 18.3798 35.5683C18.3798 35.8502 18.2671 36.0758 18.0415 36.2731C17.816 36.4704 17.4778 36.555 17.0549 36.555C16.6602 36.555 16.3502 36.4704 16.0964 36.3013C15.7864 36.0758 15.6172 35.8502 15.5608 35.5965Z" fill="white"/>
    <path d="M21.4525 35.4839L22.2137 35.6248C22.1009 35.9067 21.96 36.1323 21.7344 36.2732C21.5089 36.4142 21.2552 36.4987 20.9451 36.4987C20.4377 36.4987 20.0712 36.3296 19.8175 35.9913C19.6202 35.7376 19.5356 35.3993 19.5356 34.9765C19.5356 34.4972 19.6484 34.1026 19.9021 33.8489C20.1558 33.5952 20.4659 33.426 20.8606 33.426C21.2834 33.426 21.6499 33.567 21.9036 33.8489C22.1573 34.1308 22.27 34.5818 22.27 35.1738H20.3249C20.3249 35.3993 20.3813 35.5685 20.5223 35.7094C20.635 35.8504 20.8042 35.9067 20.9733 35.9067C21.0861 35.9067 21.1988 35.8785 21.2834 35.794C21.3398 35.7376 21.3962 35.6248 21.4525 35.4839ZM21.4807 34.6946C21.4807 34.4691 21.4244 34.2999 21.3116 34.1872C21.1988 34.0744 21.0579 34.018 20.9169 34.018C20.7478 34.018 20.6068 34.0744 20.4941 34.2153C20.3813 34.3281 20.3249 34.4972 20.3249 34.7228H21.4807V34.6946Z" fill="white"/>
    <path d="M24.4124 36.4142H23.6513V33.4824H24.3561V33.9053C24.4688 33.7079 24.5816 33.567 24.6943 33.5106C24.7789 33.4542 24.8917 33.426 25.0326 33.426C25.2018 33.426 25.3709 33.4824 25.54 33.567L25.3145 34.2435C25.1736 34.159 25.0608 34.1308 24.9481 34.1308C24.8353 34.1308 24.7507 34.159 24.6662 34.2153C24.5816 34.2717 24.5252 34.3845 24.497 34.5254C24.4406 34.6946 24.4406 35.0047 24.4406 35.5121V36.4142H24.4124Z" fill="white"/>
    <path d="M27.457 36.4142L26.273 33.4824H27.0905L27.6543 34.9765L27.8234 35.4839C27.8516 35.3711 27.8798 35.2866 27.908 35.2302C27.9362 35.1456 27.9644 35.0611 27.9926 34.9765L28.5564 33.4824H29.3457L28.1617 36.4142H27.457Z" fill="white"/>
    <path d="M30.5861 33.0878V32.3831H31.3472V33.0878H30.5861ZM30.5861 36.4142V33.4825H31.3472V36.4142H30.5861Z" fill="white"/>
    <path d="M35.4911 34.3563L34.73 34.4973C34.7018 34.3563 34.6454 34.2435 34.5608 34.159C34.4763 34.0744 34.3635 34.0462 34.1944 34.0462C33.997 34.0462 33.8561 34.1026 33.7433 34.2436C33.6306 34.3845 33.5742 34.61 33.5742 34.9201C33.5742 35.2584 33.6306 35.5121 33.7433 35.653C33.8561 35.794 34.0252 35.8786 34.2226 35.8786C34.3635 35.8786 34.4763 35.8504 34.589 35.7658C34.7018 35.6812 34.7582 35.5403 34.7863 35.343L35.5475 35.4839C35.4629 35.8222 35.322 36.1041 35.0964 36.2732C34.8709 36.4424 34.5608 36.5269 34.1944 36.5269C33.7715 36.5269 33.4332 36.386 33.1795 36.1323C32.9258 35.8504 32.7849 35.4839 32.7849 35.0047C32.7849 34.5254 32.9258 34.159 33.1795 33.8771C33.4332 33.5952 33.7715 33.4824 34.2226 33.4824C34.589 33.4824 34.8709 33.567 35.0682 33.7079C35.2656 33.8207 35.4065 34.0462 35.4911 34.3563Z" fill="white"/>
    <path d="M38.5638 35.4839L39.3249 35.6248C39.2122 35.9067 39.0712 36.1323 38.8457 36.2732C38.6202 36.4142 38.3665 36.4987 38.0564 36.4987C37.549 36.4987 37.1825 36.3296 36.9288 35.9913C36.7315 35.7376 36.6469 35.3993 36.6469 34.9765C36.6469 34.4972 36.7596 34.1026 37.0134 33.8489C37.2671 33.567 37.5772 33.426 37.9718 33.426C38.3947 33.426 38.7611 33.567 39.0148 33.8489C39.2685 34.1308 39.3813 34.5818 39.3813 35.1738H37.4362C37.4362 35.3993 37.4926 35.5685 37.6335 35.7094C37.7745 35.8504 37.9154 35.9067 38.0846 35.9067C38.1973 35.9067 38.3101 35.8785 38.3947 35.794C38.451 35.7376 38.5356 35.6248 38.5638 35.4839ZM38.6202 34.6946C38.6202 34.4691 38.5638 34.2999 38.451 34.1872C38.3383 34.0744 38.1973 34.018 38.0564 34.018C37.8872 34.018 37.7463 34.0744 37.6335 34.2153C37.5208 34.3281 37.4644 34.4972 37.4644 34.7228H38.6202V34.6946Z" fill="white"/>
    <path d="M47.7819 36.2457C47.8101 36.3021 47.7255 36.3585 47.6691 36.3585H46.9644C46.908 36.3585 46.908 36.3585 46.8798 36.3303C46.8798 36.3303 46.8516 35.0335 46.5133 34.7798C46.4852 34.7516 46.316 34.7798 46.316 34.7798C46.2033 34.7798 46.1187 34.7798 46.0623 34.7798L45.865 36.2739C45.865 36.3585 45.8086 36.3867 45.7522 36.3867H45.1038C45.0475 36.3867 45.0475 36.3867 45.0475 36.3303L45.5831 32.6092C45.5831 32.5528 45.6395 32.5246 45.6958 32.4965C45.865 32.4683 46.0905 32.4683 46.2878 32.4683H46.3442H46.3724C46.5415 32.4683 46.7107 32.4683 46.7952 32.4683C47.6409 32.4683 48.0074 32.8065 48.0074 33.3985C48.0074 33.9905 47.8101 34.3006 47.2181 34.5543C47.2181 34.5543 47.2463 34.6107 47.2463 34.6389C47.5846 34.9772 47.7819 36.2457 47.7819 36.2457ZM46.2033 34.216C46.2878 34.216 46.3724 34.216 46.5133 34.216C46.9926 34.216 47.2181 33.9059 47.2181 33.5113C47.2181 33.1448 46.9644 33.0602 46.7107 33.0602C46.6261 33.0602 46.5133 33.0602 46.3724 33.0602L46.2033 34.216Z" fill="white"/>
    <path d="M53.0534 32.5805L52.6869 34.9767C52.546 35.9069 51.9822 36.4144 51.0237 36.4144C50.0089 36.4144 49.586 35.8506 49.6988 34.9203L50.0371 32.5242C50.0653 32.4678 50.0653 32.4678 50.1216 32.4678H50.77C50.8264 32.4678 50.8546 32.5242 50.8546 32.5805L50.4881 34.9767C50.4035 35.4841 50.6009 35.7378 51.0237 35.7378C51.4748 35.7378 51.7849 35.4559 51.8694 34.9485L52.2077 32.5523C52.2077 32.496 52.2359 32.496 52.2923 32.496H52.9406C53.0252 32.4678 53.0816 32.5242 53.0534 32.5805Z" fill="white"/>
    <path d="M57.0564 32.7778C57.1127 32.8342 57.1127 32.8624 57.0845 32.9188L56.7463 33.3134C56.7181 33.3416 56.6617 33.3416 56.5771 33.3134C56.3516 33.1725 56.267 33.1443 56.0979 33.1443C55.8442 33.1443 55.5905 33.398 55.5905 33.6235C55.5905 33.8208 55.816 33.9336 56.0415 34.0464C56.5207 34.3001 56.9154 34.4128 56.9154 35.0612C56.8872 35.7096 56.5207 36.4425 55.4213 36.4425C54.9139 36.4425 54.632 36.2734 54.2937 35.9915C54.2656 35.9351 54.2374 35.9069 54.2656 35.8505L54.5475 35.484C54.5756 35.4277 54.6602 35.4277 54.6884 35.484C54.9703 35.6814 55.1113 35.7659 55.4213 35.7659C55.8442 35.7659 56.0415 35.4277 56.0415 35.1458C56.0415 34.8639 55.816 34.7793 55.6187 34.6947C55.1394 34.441 54.7166 34.3283 54.7166 33.7363C54.7166 33.2288 55.0267 32.4395 56.0697 32.4395C56.4362 32.4113 56.8026 32.5241 57.0564 32.7778Z" fill="white"/>
    <path d="M61.2849 32.7778C61.3412 32.8342 61.3412 32.8624 61.3131 32.9188L60.9748 33.3134C60.9466 33.3416 60.8902 33.3416 60.8056 33.3134C60.5801 33.1725 60.4956 33.1443 60.3264 33.1443C60.0727 33.1443 59.819 33.398 59.819 33.6235C59.819 33.8208 60.0445 33.9336 60.27 34.0464C60.7493 34.3001 61.1439 34.4128 61.1439 35.0612C61.1157 35.7096 60.7493 36.4425 59.6499 36.4425C59.1424 36.4425 58.8605 36.2734 58.5223 35.9915C58.4941 35.9351 58.4659 35.9069 58.4941 35.8505L58.776 35.484C58.8042 35.4277 58.8887 35.4277 58.9169 35.484C59.1988 35.6814 59.3398 35.7659 59.6499 35.7659C60.0727 35.7659 60.27 35.4277 60.27 35.1458C60.27 34.8639 60.0445 34.7793 59.8472 34.6947C59.368 34.441 58.9451 34.3283 58.9451 33.7363C58.9451 33.2288 59.2552 32.4395 60.2982 32.4395C60.6647 32.4113 61.0312 32.5241 61.2849 32.7778Z" fill="white"/>
    <path d="M64.1039 32.4678C64.1602 32.4678 64.2166 32.5242 64.1884 32.5805L63.5119 36.2452C63.5119 36.3016 63.4555 36.3298 63.3991 36.3298H62.7507C62.6944 36.3298 62.6662 36.3016 62.6662 36.2734L63.3709 32.5242C63.3709 32.4678 63.3991 32.4678 63.4555 32.4678H64.1039Z" fill="white"/>
    <path d="M68.5861 36.3581H67.9095C67.8531 36.3581 67.8249 36.3017 67.8249 36.2735L67.684 35.2305H66.641L66.1335 36.2735C66.1053 36.3017 66.0772 36.3299 66.0208 36.3299H65.3442C65.2878 36.3299 65.2315 36.2735 65.2596 36.2171L67.1766 32.4961C67.2048 32.4397 67.2329 32.4397 67.2611 32.4397H67.9659C68.0223 32.4397 68.0504 32.4961 68.0504 32.5243L68.6424 36.189C68.6706 36.3017 68.6424 36.3581 68.5861 36.3581ZM67.6276 34.6385L67.5148 33.4263L66.8383 34.6385H67.6276Z" fill="white"/>
    <path d="M70.4748 35.3994H69.6573V36.2451H70.4748V35.3994Z" fill="white"/>
    <path d="M18.5208 28.352V11.2407C18.5208 9.69027 18.5208 8.98552 17.9006 8.39354C17.365 7.91431 16.5757 7.91431 15.8709 7.91431C15.7018 7.91431 9.64095 7.99888 9.64095 7.99888V38.5849L13.2211 35.8223V31.1428C14.095 31.1428 15.4481 31.171 15.9555 31.171C16.9421 31.171 18.1543 30.8609 18.4926 29.4796C18.549 29.3104 18.5208 29.1131 18.5208 28.9158C18.5208 28.7185 18.5208 28.5211 18.5208 28.352ZM15.1662 27.7882C15.1662 27.9855 15.0534 28.1547 14.8561 28.3238C14.6306 28.4929 14.405 28.5775 14.1231 28.5775C13.8694 28.5775 13.2493 28.5775 13.2493 28.5775C13.2493 28.5775 13.2211 28.0137 13.2211 27.8164V11.5226C13.2211 11.2689 13.2211 10.7051 13.2211 10.7051C13.2211 10.7051 13.8694 10.7051 14.1231 10.7051C14.4332 10.7051 14.6588 10.7897 14.8843 10.9306C15.0816 11.0716 15.1944 11.2689 15.1944 11.4944V27.7882H15.1662Z" fill="white"/>
    <path d="M41.9748 10.3669V7.94256H39.4095V2.33276L35.9139 4.98262V7.94256H34.0252V10.3669H35.9139V27.6473C35.9139 28.7467 36.1395 29.536 36.5905 29.9871C37.0415 30.4381 37.5208 30.7482 38.0564 30.8891C38.3665 30.9737 38.6484 31.0301 38.9303 31.0301C39.2122 31.0301 39.4659 31.0583 39.6632 31.0583C39.6914 31.0583 39.6914 31.0583 39.6914 31.0865H41.9748V28.5494H40.7062C40.6499 28.5494 40.5653 28.5494 40.4807 28.5212C40.3961 28.5212 40.3116 28.493 40.2552 28.4648C40.0579 28.4084 39.8605 28.2675 39.6632 28.042C39.4941 27.8164 39.4095 27.5064 39.4095 27.0553V10.3669H41.9748Z" fill="white"/>
    <path d="M31.2626 9.71857C31.1499 9.26754 30.868 8.87288 30.4451 8.47822C30.0223 8.08356 29.2893 7.88623 28.2463 7.88623H25.9065C25.7656 7.88623 25.6246 7.88623 25.4555 7.88623C25.3145 7.88623 25.1454 7.88623 24.9763 7.91442C24.3843 7.9708 23.8487 8.19632 23.3694 8.59098C22.8902 8.98564 22.6647 9.77496 22.6647 11.0153V15.0465C22.6647 15.1028 22.6647 15.131 22.6647 15.1592C22.6647 15.1874 22.6647 15.2156 22.6647 15.2438C22.6647 15.5821 22.6647 15.864 22.6929 16.1177C22.6929 16.3714 22.7493 16.6251 22.862 16.8506C22.9184 17.0198 23.0312 17.2171 23.2003 17.4144C23.3412 17.6117 23.5386 17.8373 23.7923 18.0628L26.9496 21.1637C27.0623 21.2764 27.1751 21.3892 27.2596 21.4738C27.3442 21.5865 27.4288 21.6711 27.4852 21.7557C27.6261 21.9812 27.7389 22.2067 27.7953 22.4322C27.8516 22.6577 27.908 22.9678 27.908 23.3061V27.7601C27.908 27.7883 27.908 27.8165 27.908 27.8447C27.908 27.8729 27.908 28.5494 27.908 28.5494H27.5979C27.5979 28.5494 27.2878 28.5776 27.0341 28.5776C26.8086 28.5776 26.6113 28.4931 26.4421 28.3521C26.3012 28.2112 26.2166 28.0138 26.2166 27.7601V23.1088L22.7211 25.6177V27.6755C22.7211 27.7037 22.7211 27.7319 22.7211 27.7601C22.7211 27.7883 22.7211 27.8165 22.7211 27.8447C22.7211 28.0138 22.7211 28.2393 22.7493 28.4649C22.7493 28.7186 22.7774 28.9441 22.8338 29.1978C22.9748 29.6488 23.2567 30.0717 23.6795 30.4664C24.1024 30.8328 24.8353 31.0301 25.8501 31.0583L28.2745 31.0301C29.4021 31.0301 30.1632 30.8046 30.5861 30.3254C31.0089 29.8744 31.2626 29.3388 31.3472 28.775C31.3754 28.5776 31.3754 28.3803 31.4036 28.2112C31.4036 28.042 31.4317 27.8729 31.4317 27.6755V23.1088C31.4317 22.5732 31.4318 22.1503 31.4036 21.812C31.3754 21.4738 31.2908 21.1637 31.1217 20.8536C31.0089 20.6281 30.8398 20.4026 30.6424 20.1488C30.4451 19.8951 30.1914 19.6132 29.8531 19.3031L27.3724 16.9634C27.0623 16.6533 26.7804 16.3432 26.5549 15.9767C26.3012 15.6385 26.1884 15.2438 26.1884 14.7646V11.0999C26.1884 10.8462 26.273 10.677 26.4421 10.5361C26.6113 10.3951 26.7804 10.3388 26.9777 10.3106C27.0059 10.3106 27.0059 10.3106 27.0341 10.3106C27.0341 10.3106 27.0623 10.3106 27.0905 10.3106C27.2878 10.3106 27.4852 10.3951 27.6543 10.5361C27.8234 10.677 27.908 10.8744 27.908 11.1281V15.3847L31.4036 12.4812V11.0717C31.4036 11.0435 31.4036 11.0153 31.4036 11.0153C31.4036 10.8462 31.4036 10.6488 31.3754 10.4233C31.3472 10.1696 31.319 9.94409 31.2626 9.71857Z" fill="white"/>
    <path d="M49.3605 31.2274L49.8962 28.9722L65.1187 15.4128L51.9258 30.6072L49.3605 31.2274Z" fill="#EC6E00"/>
    <path d="M51.3338 10.6206H50.8546V12.763H51.3338V10.6206Z" fill="white"/>
    <path d="M48.0141 10.8514L47.5386 10.9111L47.8058 13.0369L48.2813 12.9771L48.0141 10.8514Z" fill="white"/>
    <path d="M44.7103 11.672L44.2538 11.8176L44.9046 13.8587L45.3612 13.7131L44.7103 11.672Z" fill="white"/>
    <path d="M41.6134 12.9465L41.1898 13.1707L42.1918 15.0644L42.6154 14.8402L41.6134 12.9465Z" fill="white"/>
    <path d="M63.2814 15.1001L61.9 16.7378L62.2663 17.0468L63.6477 15.4091L63.2814 15.1001Z" fill="white"/>
    <path d="M60.5389 13.2214L59.4107 15.0427L59.8181 15.2951L60.9463 13.4738L60.5389 13.2214Z" fill="white"/>
    <path d="M67.6086 20.1957L65.7738 21.302L66.0213 21.7124L67.8561 20.6061L67.6086 20.1957Z" fill="white"/>
    <path d="M65.654 17.4703L64.0323 18.8706L64.3456 19.2333L65.9672 17.833L65.654 17.4703Z" fill="white"/>
    <path d="M69.1098 23.2615L67.1014 24.0073L67.2683 24.4566L69.2766 23.7108L69.1098 23.2615Z" fill="white"/>
    <path d="M70.3286 29.8047L68.1864 29.8289L68.1918 30.308L70.334 30.2838L70.3286 29.8047Z" fill="white"/>
    <path d="M69.9787 26.5217L67.8554 26.8064L67.9191 27.2814L70.0424 26.9966L69.9787 26.5217Z" fill="white"/>
    <path d="M57.483 11.7451L56.7649 13.7637L57.2164 13.9243L57.9345 11.9057L57.483 11.7451Z" fill="white"/>
    <path d="M54.2288 10.9406L53.9096 13.0591L54.3835 13.1305L54.7027 11.0121L54.2288 10.9406Z" fill="white"/>
    <path d="M76 39.8535H0V39.3742C0 18.1472 17.0549 0.89502 38 0.89502C58.9451 0.89502 76 18.1472 76 39.3742V39.8535ZM0.958457 38.895H75.0415C74.7878 18.4291 58.2685 1.85348 38 1.85348C17.7315 1.85348 1.21217 18.4291 0.958457 38.895Z" fill="white"/>
</svg>
