<svg xmlns="http://www.w3.org/2000/svg" display="none">

    <symbol id="search" viewBox="0 0 20 20">
        <path d="M19.5893 17.656L14.5865 12.6027C15.4906 11.2633 15.9728 9.71081 15.9728 8.06697C15.9728 5.90563 15.129 3.8965 13.6221 2.37443C12.1152 0.852359 10.096 0 7.98641 0C5.87679 0 3.85758 0.852359 2.35072 2.37443C0.843847 3.8965 0 5.93607 0 8.06697C0 10.1979 0.843847 12.2374 2.35072 13.7595C3.85758 15.2816 5.87679 16.1339 7.98641 16.1339C9.70424 16.1339 11.3618 15.586 12.718 14.5814L17.6906 19.6043C17.9619 19.8782 18.2934 20 18.655 20C19.0167 20 19.3482 19.8782 19.6194 19.6043C20.1318 19.0563 20.1318 18.1735 19.5893 17.656ZM4.24937 11.8417C3.25484 10.8371 2.71236 9.49772 2.71236 8.06697C2.71236 6.63623 3.25484 5.2968 4.24937 4.29224C5.2439 3.28767 6.56995 2.73973 7.98641 2.73973C9.40286 2.73973 10.7289 3.28767 11.7234 4.29224C12.718 5.2968 13.2604 6.63623 13.2604 8.06697C13.2604 9.49772 12.718 10.8371 11.7234 11.8417C10.7289 12.8463 9.40286 13.3942 7.98641 13.3942C6.56995 13.3942 5.2439 12.8463 4.24937 11.8417Z"/>
    </symbol>

    <symbol id="cat1" viewBox="0 0 30 7">
        <path d="M21.6074 4.57098C21.5379 4.5489 21.4683 4.52681 21.3756 4.52681H17.7821C17.8284 3.84227 18.4312 3.3123 19.1731 3.3123H19.4281C20.1932 3.3123 20.8192 2.71609 20.8192 1.98738V1.32492C20.8192 0.596215 20.1932 0 19.4281 0H17.0865C16.3215 0 15.6955 0.596215 15.6955 1.32492V4.52681H10.8037V3.99685H11.8238C11.9861 3.99685 12.1252 3.86435 12.1252 3.70978V2.67192C12.1252 2.51735 11.9861 2.38486 11.8238 2.38486H10.8037V1.63407C10.8037 1.52366 10.711 1.45741 10.6182 1.45741C10.5255 1.45741 10.4328 1.54574 10.4328 1.63407V2.36278H9.41267C9.25039 2.36278 9.11128 2.49527 9.11128 2.64984V3.6877C9.11128 3.84227 9.25039 3.97476 9.41267 3.97476H10.4328V4.50473H8.62442C8.5085 4.50473 8.41576 4.52681 8.32303 4.57098V6.44795C8.41576 6.49211 8.5085 6.5142 8.62442 6.5142H21.3756C21.4451 6.5142 21.5379 6.49211 21.6074 6.47003V4.57098Z"/>
        <path d="M7.97527 4.61514C6.97836 4.28391 5.72643 4.08517 5.26275 4.08517C4.52086 4.08517 3.15301 4.61514 2.8748 5.2776H0.255023C0.11592 5.2776 0 5.38801 0 5.5205C0 5.653 0.11592 5.76341 0.255023 5.76341H2.8748C3.15301 6.44795 4.52086 6.95584 5.26275 6.95584C5.74961 6.95584 6.97836 6.7571 7.97527 6.42587V4.61514Z"/>
        <path d="M29.745 5.2776H27.1252C26.847 4.59306 25.4791 4.08517 24.7373 4.08517C24.2504 4.08517 22.9289 4.30599 21.932 4.65931V6.42587C22.9289 6.77918 24.2504 7 24.7373 7C25.4791 7 26.847 6.47003 27.1252 5.80757H29.745C29.8841 5.80757 30 5.69716 30 5.56467C30 5.43218 29.8841 5.2776 29.745 5.2776Z"/>
    </symbol>

    <symbol id="cat2" viewBox="0 0 18 14">
        <path d="M3.19578 7.48276C4.83685 7.56897 6.18426 6.25862 6.18426 4.63793C6.18426 3.36207 5.35509 2.2931 4.1977 1.93104V0.586207C4.1977 0.258621 3.93858 0 3.61037 0H3.07486C2.74664 0 2.48753 0.258621 2.48753 0.586207V1.93104C1.27831 2.31035 0.414592 3.48276 0.500964 4.82758C0.587336 6.24138 1.762 7.41379 3.19578 7.48276Z"/>
        <path d="M9.96738 7.48276C11.6085 7.56897 12.9559 6.25862 12.9559 4.63793C12.9559 3.36207 12.1267 2.2931 10.9693 1.93104V0.586207C10.9693 0.258621 10.7102 0 10.382 0H9.84646C9.51824 0 9.25913 0.258621 9.25913 0.586207V1.93104C8.04991 2.31035 7.18619 3.48276 7.27256 4.82758C7.34166 6.24138 8.5336 7.41379 9.96738 7.48276Z"/>
        <path d="M12.8695 10.7241H11.7466V10.2586C11.7466 10.1034 11.6084 9.96552 11.453 9.96552H2.26295V8.81034C2.26295 8.65517 2.12476 8.51724 1.96929 8.51724C1.81382 8.51724 1.67562 8.65517 1.67562 8.81034V10.7241H0.656429V10.2586C0.656429 10.1034 0.518234 9.96552 0.362764 9.96552H0.293666C0.138196 9.96552 0 10.1034 0 10.2586V12.2586C0 12.4138 0.138196 12.5517 0.293666 12.5517H0.362764C0.518234 12.5517 0.656429 12.4138 0.656429 12.2586V11.7931H1.67562V13.7069C1.67562 13.8621 1.81382 14 1.96929 14C2.12476 14 2.26295 13.8621 2.26295 13.7069V12.5517H11.4702C11.6257 12.5517 11.7639 12.4138 11.7639 12.2586V11.7931H12.8867C13.0422 11.7931 13.1804 11.6552 13.1804 11.5V11.0172C13.1631 10.8448 13.0422 10.7241 12.8695 10.7241Z"/>
        <path d="M16.2552 2.84483C16.9462 2.84483 17.499 2.2931 17.499 1.60345C17.499 0.913792 16.9462 0.362069 16.2552 0.362069C15.5643 0.362069 15.0115 0.913792 15.0115 1.60345C15.0115 2.2931 15.5815 2.84483 16.2552 2.84483ZM16.2552 0.706896C16.7562 0.706896 17.1535 1.10345 17.1535 1.60345C17.1535 2.10345 16.7562 2.5 16.2552 2.5C15.7543 2.5 15.357 2.10345 15.357 1.60345C15.357 1.10345 15.7716 0.706896 16.2552 0.706896Z"/>
        <path d="M16.2552 6.05172C16.9462 6.05172 17.499 5.5 17.499 4.81034C17.499 4.12069 16.9462 3.56897 16.2552 3.56897C15.5643 3.56897 15.0115 4.12069 15.0115 4.81034C15.0115 5.5 15.5815 6.05172 16.2552 6.05172ZM16.2552 3.91379C16.7562 3.91379 17.1535 4.31034 17.1535 4.81034C17.1535 5.31034 16.7562 5.7069 16.2552 5.7069C15.7543 5.7069 15.357 5.31034 15.357 4.81034C15.357 4.31034 15.7716 3.91379 16.2552 3.91379Z"/>
        <path d="M17.2226 7.68965H15.3052C14.8733 7.68965 14.5278 8.03448 14.5278 8.46552V12.9828C14.5278 13.4138 14.8733 13.7586 15.3052 13.7586H17.2226C17.6545 13.7586 18 13.4138 18 12.9828V8.46552C17.9827 8.03448 17.6372 7.68965 17.2226 7.68965Z"/>
    </symbol>

    <symbol id="cat3" viewBox="0 0 15 18">
        <path d="M7.50001 12.1333C8.17064 12.1333 8.71429 11.6259 8.71429 11C8.71429 10.3741 8.17064 9.86667 7.50001 9.86667C6.82937 9.86667 6.28572 10.3741 6.28572 11C6.28572 11.6259 6.82937 12.1333 7.50001 12.1333Z"/>
        <path d="M10.9762 4.8V3.11111C10.9762 2.42222 10.381 1.88889 9.66667 1.88889H9.5C9.11905 1.88889 8.83333 1.6 8.83333 1.26667V1.22222C8.83333 0.533333 8.2381 0 7.52381 0C6.80952 0 6.21429 0.555556 6.21429 1.22222V1.26667C6.21429 1.62222 5.90476 1.88889 5.54762 1.88889H5.33333C4.59524 1.88889 4.02381 2.44444 4.02381 3.11111V4.8C1.64286 5.97778 0 8.31111 0 11C0 14.8667 3.35714 18 7.5 18C11.6429 18 15 14.8667 15 11C15 8.28889 13.3571 5.95556 10.9762 4.8ZM4.66667 3.11111C4.66667 2.75556 4.97619 2.48889 5.33333 2.48889H5.5C6.2381 2.48889 6.80952 1.93334 6.80952 1.26667V1.22222C6.80952 0.866667 7.11905 0.600003 7.47619 0.600003C7.83333 0.600003 8.14286 0.888889 8.14286 1.22222V1.26667C8.14286 1.95556 8.7381 2.48889 9.45238 2.48889H9.61905C10 2.48889 10.2857 2.77778 10.2857 3.11111V4.51112C9.40476 4.17778 8.45238 4 7.45238 4C6.45238 4 5.5 4.17778 4.61905 4.51112V3.11111H4.66667ZM7.5 9.6C8.33333 9.6 9 10.2222 9 11C9 11.7778 8.33333 12.4 7.5 12.4C6.66667 12.4 6 11.7778 6 11C6 10.2222 6.66667 9.6 7.5 9.6ZM6.40476 6.68889C6.40476 6.11111 6.90476 5.66667 7.5 5.66667C8.09524 5.66667 8.59524 6.13333 8.59524 6.68889C8.59524 7.24445 8.09524 7.71111 7.5 7.71111C6.90476 7.71111 6.40476 7.26667 6.40476 6.68889ZM2.90476 12.0222C2.28571 12.0222 1.80952 11.5556 1.80952 11C1.80952 10.4444 2.30952 9.97778 2.90476 9.97778C3.5 9.97778 4 10.4444 4 11C4 11.5556 3.5 12.0222 2.90476 12.0222ZM7.5 16.3111C6.88095 16.3111 6.40476 15.8444 6.40476 15.2889C6.40476 14.7111 6.90476 14.2667 7.5 14.2667C8.09524 14.2667 8.59524 14.7333 8.59524 15.2889C8.59524 15.8444 8.09524 16.3111 7.5 16.3111ZM12.0952 12.0222C11.4762 12.0222 11 11.5556 11 11C11 10.4444 11.5 9.97778 12.0952 9.97778C12.6905 9.97778 13.1905 10.4444 13.1905 11C13.1905 11.5556 12.7143 12.0222 12.0952 12.0222Z"/>
    </symbol>

    <symbol id="cat4" viewBox="0 0 19 19">
        <path d="M9.5 0C4.24531 0 0 4.24531 0 9.5C0 14.7547 4.24531 19 9.5 19C14.7547 19 19 14.7547 19 9.5C19 4.24531 14.7547 0 9.5 0ZM9.5 17.9609C4.80937 17.9609 1.03906 14.1609 1.03906 9.5C1.03906 4.80937 4.83906 1.03906 9.5 1.03906C14.1609 1.03906 17.9609 4.83906 17.9609 9.5C17.9609 14.1906 14.1906 17.9609 9.5 17.9609Z"/>
        <path d="M9.49999 2.87969C5.84842 2.87969 2.87967 5.84844 2.87967 9.5C2.87967 13.1516 5.84842 16.1203 9.49999 16.1203C13.1515 16.1203 16.1203 13.1516 16.1203 9.5C16.1203 5.84844 13.1515 2.87969 9.49999 2.87969ZM9.49999 15.5266C6.17499 15.5266 3.47342 12.825 3.47342 9.5C3.47342 6.175 6.17499 3.47344 9.49999 3.47344C12.825 3.47344 15.5265 6.175 15.5265 9.5C15.5265 12.825 12.825 15.5266 9.49999 15.5266Z"/>
    </symbol>

    <symbol id="advantages-icon" viewBox="0 0 53 53">
        <path d="M52.9836 23.4467V23.4463C52.8971 22.6198 52.4693 21.8581 51.8102 21.3533L48.7937 19.0025L49.9275 15.2577C50.1693 14.4587 50.069 13.5857 49.6521 12.862C49.2348 12.1387 48.5296 11.6153 47.7173 11.4251L43.9223 10.5382L43.4379 6.66797C43.334 5.83903 42.8876 5.08213 42.2131 4.59238C41.5378 4.1006 40.6802 3.90915 39.8614 4.067L36.0341 4.80164L34.0184 1.4628C33.2161 0.133989 31.5316 -0.367909 30.1009 0.294272C30.0002 0.340819 29.9032 0.396675 29.8187 0.456579L26.4969 2.77259L23.2988 0.542792C22.6142 0.0659895 21.7542 -0.107651 20.9382 0.0655847C20.1222 0.23882 19.4064 0.748813 18.975 1.46361L16.9601 4.80204L13.1324 4.067C12.3128 3.90996 11.4559 4.10141 10.7819 4.59197C10.1066 5.08294 9.66017 5.83984 9.55665 6.66797L9.07223 10.5386L5.05856 11.4765L4.87013 11.538L4.80058 11.5683C3.34246 12.2067 2.613 13.7585 3.06669 15.2577L4.20011 19.0025L1.05419 21.4521L0.871827 21.6108L0.820473 21.667C-0.235308 22.8214 -0.276553 24.5675 0.722214 25.7348L3.18517 28.6831L1.18884 32.3093L1.10919 32.4906L1.08614 32.5582C0.588371 34.0473 1.26648 35.6655 2.66314 36.3216L6.19077 37.9787L5.86041 41.8652C5.78964 42.6977 6.06946 43.5311 6.62748 44.1512C7.18549 44.7717 7.9841 45.1372 8.8187 45.1542L12.7147 45.2319L13.9925 48.9164C14.2658 49.7057 14.8598 50.3533 15.6216 50.6925C16.3835 51.0321 17.2613 51.041 18.0312 50.7168L21.6223 49.2018L24.4411 52.2128L24.5887 52.3443L24.6457 52.3868C25.2025 52.7984 25.8531 53 26.4977 53C27.3133 53 28.1188 52.677 28.7079 52.0476L31.3726 49.2018L34.9642 50.7172C35.7324 51.041 36.6099 51.0321 37.3717 50.6929C38.1343 50.3533 38.7283 49.7057 39.0017 48.9168L40.2799 45.2319L44.4011 45.1498L44.5968 45.1283L44.6672 45.1141C46.2037 44.8005 47.2644 43.4036 47.1338 41.8656L46.8038 37.9787L50.3318 36.3216C51.0868 35.9671 51.6678 35.3081 51.9258 34.5136C52.1834 33.7194 52.1005 32.8444 51.6978 32.113L49.8094 28.6831L52.2728 25.7348C52.811 25.1054 53.0702 24.2724 52.9836 23.4467ZM46.8717 27.3498C46.3837 27.9266 46.3004 28.7559 46.6655 29.4185L48.9352 33.5413L44.6777 35.5412C43.9874 35.8659 43.5673 36.5948 43.6316 37.3554L44.0299 42.0457L39.328 42.1396C38.5658 42.155 37.8853 42.6496 37.6354 43.3709L36.0931 47.8179L31.76 45.9896C31.0572 45.6933 30.2348 45.8678 29.7127 46.4251L26.4969 49.8599L23.281 46.4247C22.9288 46.0483 22.4391 45.8467 21.9418 45.8467C21.7028 45.8467 21.4622 45.8933 21.2345 45.9896L16.9006 47.8179L15.3588 43.3721C15.1093 42.6504 14.4288 42.155 13.6658 42.1396L8.96346 42.0457L9.36175 37.3554C9.42645 36.5948 9.00592 35.8659 8.31568 35.5412L4.05858 33.5413L6.32825 29.4189C6.69379 28.7555 6.61009 27.9266 6.12162 27.3494L3.13422 23.7734L6.79448 20.9231C7.39374 20.4604 7.64848 19.6655 7.42851 18.941L6.06501 14.436L10.6452 13.3651C11.3872 13.1914 11.9497 12.5665 12.0451 11.8088L12.6298 7.13789L17.2492 8.02471C17.9981 8.16799 18.7655 7.82557 19.1602 7.1727L21.592 3.14376L25.4508 5.83376C26.0767 6.27009 26.9178 6.2705 27.5434 5.83376L31.4022 3.14335L33.8344 7.17148C34.2282 7.82516 34.9973 8.16799 35.7462 8.02431L40.3648 7.13748L40.9495 11.808C41.0441 12.5653 41.6066 13.191 42.3498 13.3651L46.9296 14.4356L45.5657 18.9406C45.3461 19.6667 45.6012 20.4612 46.2005 20.9235L49.8591 23.775L46.8717 27.3498Z"/>
        <path d="M26.6619 13.2921C19.3846 13.2921 13.464 19.2181 13.464 26.5029C13.464 33.7873 19.3846 39.7138 26.6619 39.7138C33.9395 39.7138 39.8601 33.7873 39.8601 26.5029C39.8601 19.2181 33.9391 13.2921 26.6619 13.2921ZM26.6619 36.6028C21.0983 36.6028 16.5715 32.072 16.5715 26.5029C16.5715 20.9335 21.0983 16.4027 26.6619 16.4027C32.2258 16.4027 36.7522 20.9335 36.7522 26.5029C36.7522 32.072 32.2258 36.6028 26.6619 36.6028Z"/>
        <path d="M30.4556 22.4011L24.3251 28.5372L22.6615 26.8717C22.0546 26.2645 21.0708 26.2645 20.4642 26.8717C19.8573 27.4792 19.8573 28.464 20.4642 29.0715L23.2264 31.8364C23.5297 32.1404 23.9276 32.2922 24.3251 32.2922C24.7226 32.2922 25.1204 32.1404 25.4237 31.8364L32.6528 24.6006C33.2594 23.993 33.2594 23.0083 32.6528 22.4011C32.0459 21.7936 31.0621 21.7936 30.4556 22.4011Z"/>
    </symbol>

</svg>